# xmcd
#
# Track frame offsets:
#	150
#	13814
#	24935
#	37756
#	53607
#	63885
#
# Disc length: 1023 seconds
#
# Revision: 0
# Processed by: cddbd v1.5.2PL0 Copyright (c) Steve Scherf et al.
# Submitted via: EasyCDDAExtractor 16.0.1.1
#
DISCID=3903fd06
DTITLE=The Leroi Brothers - Forget About The Danger  Think Of The Fun
DYEAR=1984
DGENRE=Country
TTITLE0=Pretty Little Lights Of Town
TTITLE1=Dance With Me Tonight
TTITLE2=Treat Her Right
TTITLE3=Eternally Blue
TTITLE4=Ain't I'm A Dog
TTITLE5=D  W  I 
EXTD=
EXTT0=
EXTT1=
EXTT2=
EXTT3=
EXTT4=
EXTT5=
PLAYORDER=
